<svg width="3152" height="645" viewBox="0 0 3152 645" xmlns="http://www.w3.org/2000/svg"><g fill="none" fill-rule="evenodd"><path d="M.514 350.422c0-78.006 58.349-125.463 115.299-157.317 63.772-35.665 139.094-56.536 210.343-66.27 74.798-10.21 155.095-9.251 224.29 1.602 44.753 7.028 83.571 15.671 126.36 33.538 25.05 10.453 56.639 28.907 69.925 56.073 4.239 8.692 4.845 14.098 5.245 20.325l.055 22.43s-.07 26.546-.042 47.326c0 8.678-2.529 15.582-4.348 20.746 0 0 2.626-33.739-11.784-51.088-17.731-21.32-35.456-33.532-58.859-46.98-36.144-20.767-85.562-32.11-128.825-39.38-74.475-12.517-146.668-13.531-221.287-3.21-70.946 9.796-145.082 33.318-209.578 70.288C59.428 291.67-.223 347.799 6.034 423.609c0 0-2.067-7.035-4.293-26.082C.397 386.142.514 370.677.514 350.422" fill="#FFF"/><path d="M376.014 582.963c-181.33 0-332.615-83.66-368.043-194.936C4.504 377.112 1.7 361.813.514 350.422v23.397c0 15.534 1.675 29.914 4.459 45.2C29.52 553.138 189.205 644.31 376.014 644.31v-61.348" fill="#FFF"/><path d="M.514 312.389c0 78 58.349 125.463 115.299 157.296 63.772 35.659 139.094 56.543 210.343 66.263 74.798 10.211 155.095 9.258 224.29-1.601 44.753-7.015 83.571-15.665 126.36-33.518 25.05-10.467 56.639-28.907 69.925-56.073 4.239-8.685 4.845-14.091 5.245-20.332L752.03 402s-.07-26.552-.042-47.325c0-8.685-2.529-15.59-4.348-20.746 0 0 2.626 33.746-11.784 51.081-17.731 21.326-35.456 33.539-58.859 46.98-36.144 20.774-85.562 32.103-128.825 39.366-74.475 12.53-146.668 13.545-221.287 3.224-70.946-9.81-145.082-33.318-209.578-70.28C59.428 371.132-.223 315.011 6.034 239.18c0 0-2.067 7.056-4.293 26.097C.397 276.655.514 292.12.514 312.39" fill="#2CD9AA"/><path d="M376.014 222.184c207.656 0 375.975 54.526 375.975 133.61 0 10.244.083 53.994 0 69.03-.82-19.15-9.689-30.618-11.611-33.607-41.39-61.962-188.829-107.776-364.364-107.776v-61.257" fill="#2CD9AA"/><path d="M751.99 237.98c-.82 19.15-9.69 30.611-11.612 33.614-41.39 61.934-188.829 107.762-364.364 107.762v-18.123l-96.533 48.762 96.533 48.734v-18.116c207.656 0 375.975-54.512 375.975-133.595 0-10.26.083-54.002 0-69.039" fill="#FFF"/><path d="M472.547 49.112L376.014.364V18.48c-186.81 0-346.494 91.178-371.041 225.292C2.189 259.07.514 273.444.514 288.985v23.404c1.186-11.405 3.99-26.683 7.457-37.605C43.399 163.48 194.684 79.827 376.014 79.827v18.04l96.533-48.755M1101.559 428l-16.665-42.117h-83.022L986.116 428h-56.358l89.991-214.524h50.298L1159.129 428h-57.57zm-57.57-157.257l-27.27 73.629h53.934l-26.664-73.629zm333.3 49.389c0 18.786-3.484 34.996-10.454 48.632-6.969 13.635-16.16 24.845-27.572 33.632-11.414 8.788-24.29 15.251-38.633 19.392-14.342 4.142-28.886 6.212-43.632 6.212h-79.992V213.476h77.568a191.65 191.65 0 0 1 44.844 5.303c14.746 3.535 27.876 9.392 39.39 17.573 11.514 8.182 20.806 19.14 27.876 32.876 7.07 13.736 10.605 30.704 10.605 50.904zm-53.934 0c0-12.12-1.97-22.17-5.909-30.149-3.939-7.979-9.19-14.341-15.755-19.089-6.566-4.747-14.04-8.13-22.423-10.15-8.383-2.02-17.018-3.03-25.906-3.03h-25.755v125.442h24.543c9.292 0 18.23-1.06 26.815-3.182 8.586-2.12 16.16-5.605 22.726-10.453 6.565-4.848 11.816-11.312 15.755-19.392 3.94-8.08 5.909-18.079 5.909-29.997zM1606.054 428l1.212-151.803h-.909L1550.605 428h-36.36l-54.237-151.803h-.909L1460.311 428h-48.783V213.476h73.629l48.783 137.562h1.212l46.662-137.562h74.841V428h-50.601zm94.839 0V213.476h52.116V428h-52.116zm232.704 0l-86.355-140.289h-.909L1847.545 428h-50.298V213.476h59.085l86.052 139.986h.909l-1.212-139.986h50.298V428h-58.782z" fill="#2CD9AA"/><path d="M2207.07 393.458c-3.636 5.454-8.03 10.605-13.18 15.453-5.152 4.848-11.11 9.09-17.878 12.726-6.767 3.636-14.24 6.514-22.422 8.635-8.18 2.122-17.119 3.182-26.815 3.182-16.16 0-31.108-2.828-44.844-8.484-13.736-5.656-25.553-13.483-35.451-23.483-9.898-9.999-17.624-21.866-23.18-35.602-5.555-13.736-8.332-28.785-8.332-45.147s2.828-31.41 8.484-45.147c5.656-13.736 13.483-25.603 23.483-35.603 9.999-9.999 21.815-17.826 35.45-23.482 13.636-5.656 28.432-8.484 44.39-8.484a110.8 110.8 0 0 1 23.18 2.424c7.575 1.616 14.695 3.888 21.361 6.817 6.666 2.93 12.726 6.464 18.18 10.606 5.454 4.14 9.999 8.837 13.635 14.089l-18.18 13.332c-2.222-3.434-5.201-6.868-8.939-10.302-3.737-3.434-8.13-6.464-13.18-9.09-5.05-2.626-10.554-4.747-16.514-6.363-5.959-1.616-12.372-2.424-19.24-2.424-13.938 0-26.411 2.525-37.42 7.575-11.01 5.05-20.352 11.867-28.028 20.452-7.676 8.586-13.534 18.534-17.574 29.846-4.04 11.312-6.06 23.23-6.06 35.754 0 12.524 2.07 24.442 6.211 35.754 4.142 11.312 10.05 21.26 17.726 29.845 7.676 8.586 17.018 15.403 28.028 20.453 11.009 5.05 23.38 7.575 37.117 7.575 12.322 0 24.038-2.525 35.148-7.575 11.11-5.05 20.402-13.13 27.876-24.24l16.968 10.908zm59.388 15.15h114.837V428h-136.653V213.476h133.017v19.392h-111.201V306.8h103.929v19.089h-103.929v82.719zm309.666-12.423h.606V213.476h21.816V428h-27.27L2446.44 243.473h-.606V428h-21.816V213.476h27.27l124.836 182.709zM2724.291 428h-21.816V232.868h-71.811v-19.392h165.438v19.392h-71.811V428zm125.745-19.392h114.837V428H2828.22V213.476h133.017v19.392h-111.201V306.8h103.929v19.089h-103.929v82.719zM3029.412 428h-21.816V213.476h63.024c10.504 0 20.25 1.01 29.24 3.03 8.989 2.02 16.765 5.302 23.33 9.847 6.566 4.546 11.666 10.454 15.302 17.726 3.636 7.272 5.454 16.16 5.454 26.664 0 7.878-1.414 15.049-4.242 21.513-2.828 6.464-6.666 12.07-11.514 16.817-4.848 4.747-10.605 8.534-17.271 11.362-6.666 2.828-13.938 4.646-21.816 5.454L3151.824 428h-26.664l-59.388-100.293h-36.36V428zm0-119.079h37.875c17.574 0 31.108-3.181 40.602-9.544 9.494-6.364 14.241-15.908 14.241-28.634 0-7.07-1.313-13.029-3.939-17.877-2.626-4.848-6.262-8.787-10.908-11.817-4.646-3.03-10.302-5.252-16.968-6.666-6.666-1.414-14.039-2.121-22.119-2.121h-38.784v76.659z" fill="#FFF"/></g></svg>